<svg xmlns="http://www.w3.org/2000/svg" viewBox="0 0 360 560" role="img" aria-labelledby="title desc">
  <title id="title">슥구 캐릭터</title>
  <desc id="desc">검은 정장, 파란 눈, 파이프를 든 슥구 상담원 캐릭터</desc>
  <defs>
    <filter id="softShadow" x="-20%" y="-20%" width="140%" height="140%">
      <feDropShadow dx="0" dy="9" stdDeviation="7" flood-color="#111827" flood-opacity="0.16"/>
    </filter>
    <linearGradient id="hair" x1="0" x2="1" y1="0" y2="1">
      <stop offset="0" stop-color="#4b4f50"/>
      <stop offset="1" stop-color="#252829"/>
    </linearGradient>
    <linearGradient id="skin" x1="0" x2="0" y1="0" y2="1">
      <stop offset="0" stop-color="#ffe9e3"/>
      <stop offset="1" stop-color="#ffd8cf"/>
    </linearGradient>
    <linearGradient id="eyeBlue" x1="0" x2="1">
      <stop offset="0" stop-color="#56ddff"/>
      <stop offset="0.55" stop-color="#16b9ef"/>
      <stop offset="1" stop-color="#0b86cc"/>
    </linearGradient>
    <linearGradient id="suit" x1="0" x2="0" y1="0" y2="1">
      <stop offset="0" stop-color="#2d3132"/>
      <stop offset="1" stop-color="#151819"/>
    </linearGradient>
  </defs>

  <g filter="url(#softShadow)" stroke="#2a2a2a" stroke-linecap="round" stroke-linejoin="round">
    <path d="M88 160c-26-6-50 11-54 39-3 23 10 45 31 56 17 9 34 4 43-12z" fill="#ffdcd4" stroke-width="7"/>
    <path d="M272 160c26-6 50 11 54 39 3 23-10 45-31 56-17 9-34 4-43-12z" fill="#ffdcd4" stroke-width="7"/>
    <path d="M52 204c18 1 31 10 38 26" fill="none" stroke-width="5" opacity="0.75"/>
    <path d="M307 204c-18 1-31 10-38 26" fill="none" stroke-width="5" opacity="0.75"/>

    <path d="M69 184c0-76 51-126 115-126 70 0 113 47 113 124 0 76-42 129-114 129-73 0-114-52-114-127z" fill="url(#skin)" stroke-width="8"/>

    <path d="M48 154c10-54 54-91 114-104 57-12 111 6 136 45 16 25 18 54 13 78-24-25-60-42-103-41-47 1-83-4-105-21-7 21-24 35-55 43z" fill="url(#hair)" stroke-width="8"/>
    <path d="M100 67c-28 3-54 15-78 37 29-5 54-1 76 12z" fill="url(#hair)" stroke-width="8"/>
    <path d="M161 48c-6 30-17 55-40 78 35-5 62-21 83-50z" fill="url(#hair)" stroke-width="8"/>
    <path d="M216 60c-22 15-35 38-41 71 28-15 48-35 62-61z" fill="url(#hair)" stroke-width="8"/>
    <path d="M261 90c-24 9-42 27-54 55 29-8 53-24 72-48z" fill="url(#hair)" stroke-width="8"/>
    <path d="M112 80c32-9 67-8 101 3" fill="none" stroke="#5f6465" stroke-width="6" opacity="0.35"/>
    <path d="M233 101c12 4 24 11 36 20" fill="none" stroke="#707576" stroke-width="5" opacity="0.35"/>

    <path d="M93 191c22-12 46-13 72-3" fill="none" stroke="#232323" stroke-width="9"/>
    <path d="M198 188c26-10 50-9 72 3" fill="none" stroke="#232323" stroke-width="9"/>
    <path d="M104 213c16 11 42 11 58 0 0 28-58 28-58 0z" fill="url(#eyeBlue)" stroke-width="6"/>
    <path d="M199 213c16 11 42 11 58 0 0 28-58 28-58 0z" fill="url(#eyeBlue)" stroke-width="6"/>
    <circle cx="145" cy="219" r="5" fill="#b9f5ff"/>
    <circle cx="240" cy="219" r="5" fill="#b9f5ff"/>
    <path d="M181 222l-8 17 15 0" fill="none" stroke-width="6"/>
    <path d="M154 263c17 10 38 10 55 0" fill="none" stroke-width="6"/>
    <ellipse cx="92" cy="252" rx="30" ry="18" fill="#ffb6be" opacity="0.42" stroke="none"/>
    <ellipse cx="268" cy="252" rx="30" ry="18" fill="#ffb6be" opacity="0.42" stroke="none"/>

    <path d="M100 303c-28 20-45 55-46 95h252c-1-40-19-75-47-95-35 22-124 22-159 0z" fill="url(#suit)" stroke-width="8"/>
    <path d="M133 306l47 55 47-55" fill="#f9fafb" stroke-width="6"/>
    <path d="M161 334l19 27 19-27-19-13z" fill="#111827" stroke-width="5"/>
    <path d="M125 318l-26 43 49-9" fill="none" stroke="#777d80" stroke-width="5"/>
    <path d="M235 318l26 43-49-9" fill="none" stroke="#777d80" stroke-width="5"/>
    <path d="M80 364h200" fill="none" stroke="#3d4345" stroke-width="5"/>
    <circle cx="180" cy="379" r="7" fill="#f9fafb" stroke="none"/>
    <path d="M232 349c18 10 34 16 49 18" fill="none" stroke="#9ca3af" stroke-width="4"/>
    <path d="M251 356c4 13 12 20 25 21" fill="none" stroke="#9ca3af" stroke-width="4"/>
    <path d="M84 358h41" fill="none" stroke="#f9fafb" stroke-width="4" opacity="0.55"/>

    <path d="M65 345c-28 14-42 40-34 69 6 21 27 29 45 18 15-10 17-34 8-62z" fill="#1b1f20" stroke-width="8"/>
    <path d="M63 415c-9 31-2 67 18 91" fill="none" stroke="#1b1f20" stroke-width="23"/>
    <path d="M75 362l-22 1" fill="none" stroke="#f9fafb" stroke-width="4" opacity="0.65"/>
    <path d="M75 374l-24 1" fill="none" stroke="#f9fafb" stroke-width="4" opacity="0.65"/>
    <path d="M294 353c21 18 31 48 28 88" fill="none" stroke="#1b1f20" stroke-width="28"/>

    <path d="M100 390v93c0 32 25 46 51 31 7-4 11-12 11-20V390z" fill="#202425" stroke-width="8"/>
    <path d="M198 390v104c0 8 4 16 11 20 26 15 51 1 51-31v-93z" fill="#202425" stroke-width="8"/>
    <path d="M89 513c23 13 50 13 73 0 8 24-5 38-37 38-27 0-41-13-36-38z" fill="#1b1f20" stroke-width="7"/>
    <path d="M198 513c23 13 50 13 73 0 8 24-5 38-37 38-27 0-41-13-36-38z" fill="#1b1f20" stroke-width="7"/>

    <path d="M100 271c-24 8-42 20-54 38" fill="none" stroke="#1b1f20" stroke-width="17"/>
    <path d="M47 308c23 4 43-1 60-15" fill="none" stroke="#1b1f20" stroke-width="17"/>
    <path d="M52 301c-22 0-39 9-51 26" fill="none" stroke="#1b1f20" stroke-width="9"/>
    <path d="M5 326c20-8 39-6 57 5" fill="none" stroke="#1b1f20" stroke-width="8"/>
    <path d="M29 306c-14-8-20-19-18-33" fill="none" stroke="#d9e1e4" stroke-width="7" opacity="0.75"/>
    <path d="M41 294c-12-17-10-34 7-53" fill="none" stroke="#cbd5d9" stroke-width="7" opacity="0.75"/>
    <path d="M52 281c-9-13-7-26 5-39" fill="none" stroke="#e5eaec" stroke-width="6" opacity="0.72"/>
  </g>
</svg>
